<?xml version="1.0" encoding="UTF-8"?>
<svg id="_圖層_2" data-name="圖層 2" xmlns="http://www.w3.org/2000/svg" viewBox="0 0 150.54 263.87">
  <defs>
    <style>
      .cls-1, .cls-2, .cls-3, .cls-4, .cls-5 {
        fill: #e23962;
      }

      .cls-1, .cls-6 {
        opacity: .9;
      }

      .cls-7 {
        fill: #fff;
      }

      .cls-8 {
        fill: #7fcbd8;
      }

      .cls-9, .cls-6, .cls-10, .cls-11, .cls-12 {
        fill: #7ac9d0;
      }

      .cls-9, .cls-5 {
        opacity: .6;
      }

      .cls-13 {
        fill: #e73f8a;
      }

      .cls-14 {
        stroke: #e71f19;
      }

      .cls-14, .cls-15, .cls-16, .cls-17, .cls-18, .cls-19 {
        fill: none;
      }

      .cls-14, .cls-16, .cls-17, .cls-18, .cls-19 {
        stroke-miterlimit: 10;
      }

      .cls-14, .cls-18 {
        stroke-width: .25px;
      }

      .cls-10, .cls-3 {
        opacity: .7;
      }

      .cls-16 {
        stroke-width: .5px;
      }

      .cls-16, .cls-17, .cls-19 {
        stroke: #7ac9d0;
      }

      .cls-17 {
        stroke-width: .75px;
      }

      .cls-18 {
        stroke: #1dac5d;
      }

      .cls-4, .cls-12 {
        opacity: .8;
      }

      .cls-20 {
        fill: #803946;
      }

      .cls-21 {
        fill: #343232;
      }
    </style>
  </defs>
  <g id="_圖層_6" data-name="圖層 6">
    <rect class="cls-21" x=".3" y=".12" width="150.24" height="247.39"/>
    <path class="cls-20" d="m73.99,263.3c-1.02-.98-1.95-2.22-2.76-3.71l-38.01-69.35c-1.57-2.87-2.13-5.54-1.67-8,.46-2.46,1.58-4.77,3.34-6.92,1.76-2.16,4.04-4.2,6.83-6.12,2.79-1.93,5.76-3.75,8.89-5.47l16.59-9.09c3.13-1.72,6.24-3.22,9.33-4.52,3.08-1.29,6.03-2.12,8.84-2.47s5.35-.05,7.63.91c2.28.96,4.21,2.87,5.78,5.75l38.01,69.35c1.58,2.87,2.16,5.55,1.77,8.03-.4,2.48-1.5,4.81-3.3,6.99-1.81,2.18-4.1,4.2-6.87,6.06-2.77,1.86-5.73,3.65-8.86,5.37l-16.59,9.09c-2.7,1.48-5.39,2.82-8.06,4.04m-30.15-83.99l14.1,25.73-1.61-21.54-4.65-8.49c-.29-.52-.68-.99-1.19-1.39-.5-.4-1.28-.32-2.32.25l-3.4,1.86c-1.04.57-1.53,1.18-1.46,1.82.07.64.25,1.22.53,1.75Zm40.55,55.39l-14.1-25.73,1.61,21.54,4.65,8.49c.29.52.68.99,1.19,1.39.5.4,1.28.32,2.32-.25l3.4-1.86c1.04-.57,1.53-1.18,1.46-1.82-.07-.64-.25-1.22-.53-1.75Z"/>
    <path class="cls-20" d="m150.07,209.46l-33.74-61.56-10.45,5.73-8.52-15.54,39.18-21.47,13.68,24.97"/>
    <rect class="cls-11" x=".33" y="247.52" width="150.17" height="16.23"/>
    <line class="cls-17" x1="134.14" y1="108.05" x2="18.87" y2="108.05"/>
    <line class="cls-17" x1=".3" y1="243.8" x2="150.54" y2="243.8"/>
    <line class="cls-16" x1="40.14" y1="71.83" x2=".12" y2="71.83"/>
    <line class="cls-16" x1="150.43" y1="71.83" x2="111.5" y2="71.93"/>
    <line class="cls-19" x1="38.82" y1="102.9" x2="112.66" y2="102.9"/>
    <g>
      <rect class="cls-2" x="18.87" y="84.77" width="1.82" height="18.92"/>
      <rect class="cls-1" x="22.13" y="87.94" width="1.82" height="15.76"/>
      <rect class="cls-4" x="25.39" y="92.46" width="1.82" height="11.24"/>
      <rect class="cls-3" x="28.64" y="96.27" width="1.82" height="7.42"/>
      <rect class="cls-5" x="31.9" y="99.98" width="1.82" height="3.71"/>
    </g>
    <g>
      <rect class="cls-11" x="131.76" y="84.77" width="1.82" height="18.92" transform="translate(265.34 188.46) rotate(180)"/>
      <rect class="cls-6" x="128.51" y="87.94" width="1.82" height="15.76" transform="translate(258.83 191.63) rotate(180)"/>
      <rect class="cls-12" x="125.25" y="92.46" width="1.82" height="11.24" transform="translate(252.32 196.15) rotate(180)"/>
      <rect class="cls-10" x="121.99" y="96.27" width="1.82" height="7.42" transform="translate(245.81 199.96) rotate(180)"/>
      <rect class="cls-9" x="118.74" y="99.98" width="1.82" height="3.71" transform="translate(239.29 203.67) rotate(180)"/>
    </g>
    <rect class="cls-11" x="51.22" y="70.04" width="3.68" height="3.68"/>
    <rect class="cls-11" x="96.74" y="70.04" width="3.68" height="3.68"/>
    <rect class="cls-18" x="-56.57" y="56.82" width="263.62" height="150.24" transform="translate(207.18 56.69) rotate(90)"/>
    <rect class="cls-14" x="-52.32" y="61.58" width="255.12" height="141.73" transform="translate(207.69 57.2) rotate(90)"/>
    <path class="cls-11" d="m68.36,214.41v-9.64s.02-.03.02-.04c.22-.77.65-1.11,1.45-1.11,4.34,0,8.68,0,13.03,0,.87,0,1.42.55,1.42,1.43,0,3.03,0,6.05,0,9.08,0,.88-.55,1.43-1.42,1.43-1.5,0-3,0-4.51,0-2.87,0-5.74,0-8.61,0-.68,0-1.19-.4-1.35-1.06,0-.03-.02-.06-.03-.09Zm13.27-6.67c-.08.06-.13.09-.18.13-1.61,1.19-3.23,2.38-4.84,3.57-.26.19-.34.19-.61,0-1.62-1.2-3.24-2.4-4.86-3.59-.04-.03-.08-.05-.14-.09v.19c0,2.26,0,4.52,0,6.78,0,.16.05.2.2.2,3.41,0,6.82,0,10.23,0q.2,0,.2-.2c0-2.25,0-4.51,0-6.76v-.2Zm-10.57-3.45c.08.06.12.09.16.12,1.65,1.22,3.3,2.45,4.95,3.68.1.08.17.09.28,0,1.65-1.23,3.31-2.46,4.97-3.69.04-.03.08-.07.14-.12h-10.5Z"/>
    <path class="cls-11" d="m82.56,134.91h-3.54v-6h2.07c.13-.86.26-1.7.39-2.56h-2.44c0-.66-.04-1.31.01-1.95.05-.63.48-1.02,1.11-1.07.41-.03.82-.02,1.23-.03.06,0,.12,0,.17,0,.01-.03.02-.04.02-.05,0-.68,0-1.36,0-2.03,0-.04-.06-.1-.1-.11-.14-.03-.29-.05-.43-.06-.72-.08-1.43-.16-2.15-.04-1.09.18-1.9.72-2.35,1.75-.2.47-.3.97-.3,1.48,0,.65,0,1.29,0,1.94,0,.05,0,.11,0,.18h-2.25v2.56h2.25v.2c0,1.86,0,3.73,0,5.59,0,.07,0,.13,0,.2h-6.18s-.06-.02-.09-.03c-.52-.09-.94-.36-1.26-.78-.2-.27-.29-.58-.37-.9v-12.49s.02-.08.03-.12c.17-.92.97-1.59,1.9-1.59,4.02,0,8.04,0,12.05,0,1.05,0,1.92.87,1.92,1.92,0,4.02,0,8.03,0,12.05,0,.72-.33,1.28-.94,1.64-.23.14-.51.19-.76.29Z"/>
    <g>
      <g>
        <g>
          <polygon class="cls-8" points="113.23 53.51 113.85 52.94 114.47 52.37 114.47 53.51 114.47 54.64 113.85 54.08 113.23 53.51"/>
          <polygon class="cls-8" points="114.29 53.51 114.91 52.94 115.54 52.37 115.54 53.51 115.54 54.64 114.91 54.08 114.29 53.51"/>
        </g>
        <g>
          <polygon class="cls-8" points="37.16 53.51 36.54 52.94 35.92 52.37 35.92 53.51 35.92 54.64 36.54 54.08 37.16 53.51"/>
          <polygon class="cls-8" points="36.09 53.51 35.47 52.94 34.85 52.37 34.85 53.51 34.85 54.64 35.47 54.08 36.09 53.51"/>
        </g>
        <g>
          <path class="cls-8" d="m40.66,52.89h-.46v-.49h.92v2.47l-3.21-1.87v-.6l2.76,1.58v-1.08Z"/>
          <path class="cls-8" d="m42.01,52.4h2.3c.31,0,.46.16.46.49v1.48c0,.33-.15.49-.46.49h-2.3c-.31,0-.46-.16-.46-.49v-1.48c0-.33.15-.49.46-.49Zm0,.49v1.48h2.3v-1.48h-2.3Zm1.38.99h-.46v-.49h.46v.49Z"/>
          <path class="cls-8" d="m45.14,54.37v-1.48c0-.33.15-.49.46-.49h2.76l-.92.49h-1.84v1.48h2.76l-.92.49h-1.84c-.31,0-.46-.16-.46-.49Z"/>
          <path class="cls-8" d="m48.94,54.37h.46v.49h-.92v-2.47l3.21,1.87v.6l-2.76-1.58v1.08Z"/>
          <path class="cls-8" d="m54.24,54.86h-2.3v-2.47h.46v1.97h2.76l-.92.49Z"/>
          <path class="cls-8" d="m55.71,52.4h2.3c.31,0,.46.16.46.49v1.48c0,.33-.15.49-.46.49h-2.3c-.31,0-.46-.16-.46-.49v-1.48c0-.33.15-.49.46-.49Zm0,.49v1.48h2.3v-1.48h-2.3Zm1.38.99h-.46v-.49h.46v.49Z"/>
          <path class="cls-8" d="m59.32,52.4v2.47h-.46v-2.47h.46Z"/>
          <path class="cls-8" d="m59.72,52.89l.92-.49h1.84c.31,0,.46.16.46.49v1.48c0,.33-.15.49-.46.49h-2.76v-1.48h.46v.99h2.3v-1.48h-2.76Z"/>
          <path class="cls-8" d="m68.44,52.4l-.92.49h-2.3v-.49h3.21Zm-3.21.99h3.21l-.92.49h-1.84v.49h2.76l-.92.49h-2.3v-1.48Z"/>
          <path class="cls-8" d="m69.77,53.63l-1.26-1.23h.69l.92.9.92-.9h.69l-1.26,1.23,1.26,1.23h-.69l-.92-.9-.92.9h-.69l1.26-1.23Z"/>
          <path class="cls-8" d="m71.74,54.37v-1.48c0-.33.15-.49.46-.49h2.76l-.92.49h-1.84v1.48h2.76l-.92.49h-1.84c-.31,0-.46-.16-.46-.49Z"/>
          <path class="cls-8" d="m75.54,52.4v.99h2.3v-.99h.46v2.47h-.46v-.99h-2.3v.99h-.46v-2.47h.46Z"/>
          <path class="cls-8" d="m81.3,54.37v-1.08l-2.76,1.58v-.6l3.21-1.87v2.47h-.92v-.49h.46Z"/>
          <path class="cls-8" d="m82.21,54.86v-2.47l2.76,1.61v-1.61h.46v2.47l-2.76-1.58v1.58h-.46Z"/>
          <path class="cls-8" d="m89.07,54.86h-2.76c-.31,0-.46-.16-.46-.49v-1.48c0-.33.15-.49.46-.49h2.76l-.92.49h-1.84v1.48h2.3v-.49h-1.38l.92-.49h.92v1.48Z"/>
          <path class="cls-8" d="m92.66,52.4l-.92.49h-2.3v-.49h3.21Zm-3.21.99h3.21l-.92.49h-1.84v.49h2.76l-.92.49h-2.3v-1.48Z"/>
          <path class="cls-8" d="m98.17,54.86h-2.76c-.31,0-.46-.16-.46-.49v-1.48c0-.33.15-.49.46-.49h2.76l-.92.49h-1.84v1.48h2.3v-.49h-1.38l.92-.49h.92v1.48Z"/>
          <path class="cls-8" d="m99.01,53.88v.99h-.46v-1.48h2.76v-.49h-2.76l.92-.49h1.84c.31,0,.46.16.46.49v.49c0,.33-.15.49-.45.49h-1.27l1.68.99h-.97l-1.74-.99Z"/>
          <path class="cls-8" d="m102.51,52.4h2.3c.31,0,.46.16.46.49v1.48c0,.33-.15.49-.46.49h-2.3c-.31,0-.46-.16-.46-.49v-1.48c0-.33.15-.49.46-.49Zm0,.49v1.48h2.3v-1.48h-2.3Z"/>
          <path class="cls-8" d="m108.4,54.86h-2.3c-.31,0-.46-.16-.46-.49v-1.97h.46v1.97h2.3v-1.97h.46v1.97c0,.33-.15.49-.46.49Z"/>
          <path class="cls-8" d="m109.18,52.89l.92-.49h1.84c.31,0,.46.16.46.49v.49c0,.33-.15.49-.46.49h-2.3v.99h-.46v-1.48h2.76v-.49h-2.76Z"/>
        </g>
      </g>
      <g>
        <path class="cls-8" d="m87.5,18.42c-.05.3-.14.58-.26.84l-.34-.13c.07-.15.11-.28.14-.37h-1.35v.23l1.08-.05.02.31-1.1.05v.1c0,.07.03.1.1.1h1.32v.32h-1.37c-.27,0-.4-.13-.4-.4v-.11l-.6.03v-.31s.6-.02.6-.02v-.25h-.77v1.22c0,.64-.12,1.19-.37,1.63l-.29-.27c.2-.38.3-.82.3-1.32v-1.6h1.22v-.73h.36v.19h1.46v.33h-1.46v.2h1.71Zm.02,3.07h-2.99v-.34h1.01v-.26h-.68v-.82h.34v.51h.34v-.62h.34v1.18h.28v-1.18h.35v.62h.33v-.51h.34v.82h-.66v.26h1v.34Z"/>
        <path class="cls-8" d="m89.56,18.78h-.29v.51c.09-.07.17-.13.24-.2l.02.45c-.06.06-.15.12-.26.2v1.52c0,.08-.03.16-.1.23-.06.07-.23.1-.5.08l-.09-.38c.15,0,.25,0,.29,0,.04,0,.06-.02.06-.06v-1.12c-.1.09-.2.15-.28.2l-.11-.37c.17-.11.3-.2.39-.27v-.79h-.37v-.37h.37v-.71h.34v.71h.29v.37Zm1.17,1.53h-.39s-.01.07-.02.09c.11.09.22.21.35.36l-.21.32c-.06-.08-.14-.18-.24-.3-.11.3-.31.57-.6.83l-.25-.26c.38-.32.59-.67.62-1.04h-.52v-.35h.54c.01-.12.02-.24.02-.35h-.11c-.07.14-.13.25-.18.31l-.27-.17c.15-.21.26-.45.33-.74l.29.12c-.01.06-.02.1-.04.13h.61v.35h-.3c0,.16-.01.27-.02.35h.37v.35Zm.02-1.34h-.77c-.09,0-.16-.03-.21-.1-.06-.07-.08-.15-.08-.26v-.91h.34v.25h.7v.35h-.7v.19s.01.06.03.08c.02.02.04.03.06.03h.64v.36Zm1.48,2.18l-.1.38c-.55.03-.93-.13-1.15-.45-.08.23-.17.41-.27.53l-.26-.18c.26-.38.41-.9.43-1.57l.3.03c0,.26-.04.52-.09.77.06.12.12.22.19.28v-1.59h-.45v-.37h.54c-.13-.19-.28-.37-.46-.53l.26-.23c.1.09.2.19.28.3.09-.13.17-.25.23-.38h-.8v-.36h1.2v.35c-.12.23-.26.46-.41.67,0,0,.05.07.13.19h.38c-.05.32-.1.56-.16.74l-.3-.09c.03-.08.05-.17.07-.28h-.18v.63h.48v.36h-.48v.77c.12.02.26.03.42.03.06,0,.13,0,.19,0Z"/>
        <path class="cls-8" d="m95.3,19.8h-.26v1.31c0,.15-.02.25-.07.32-.05.07-.11.11-.18.12-.07.01-.23.02-.46.02l-.11-.37c.08,0,.22,0,.42,0,.03,0,.05-.02.05-.07v-1.31h-1.48v-.34h1.48v-1.37h-1.44v-.33h2.03v.33h-.24v1.37h.26v.34Zm-.83-.59h-1.05v-.89h1.05v.89Zm0,1.79h-1.05v-.95h1.05v.95Zm-.34-2.11v-.25h-.38v.25h.38Zm0,1.79v-.31h-.38v.31h.38Zm2.74.59l-.23.32c-.31-.33-.53-.74-.68-1.24-.14.54-.34.95-.62,1.22l-.23-.3c.17-.18.31-.4.41-.66.1-.25.17-.49.2-.7.03-.21.04-.54.04-.97h.35c0,.08,0,.15,0,.21,0,.88.26,1.58.77,2.12Zm-.07-3.01c-.02.5-.09.97-.21,1.41l-.33-.15c.07-.27.12-.56.16-.89h-.69c-.13.31-.25.56-.37.74l-.25-.29c.23-.41.42-.89.56-1.45l.36.07c-.05.2-.1.38-.16.56h.94Z"/>
        <path class="cls-8" d="m99.36,20.92l-.23.31c-.09-.11-.2-.25-.35-.41-.17.3-.39.57-.67.82l-.25-.28c.28-.24.5-.51.65-.8-.12-.12-.31-.29-.57-.49.1-.41.17-.79.21-1.13-.1.01-.19.02-.27.02v-.38c.06,0,.17-.01.32-.03.03-.19.06-.47.09-.86l.35.02-.08.8c.1,0,.2-.02.29-.04,0-.04,0-.15,0-.32h.34c0,.08,0,.17,0,.25.03,0,.07,0,.14-.02v.38l-.15.03c-.02.78-.11,1.33-.26,1.68.08.07.22.22.43.46Zm-.52-2.08c-.06.01-.17.03-.33.05-.06.37-.12.71-.18,1.03l.32.26c.1-.31.16-.75.19-1.34Zm2.64,2.65h-2.03v-3.7h2v.36h-.61v.67h.45v1.57h-.44v.73h.64v.36Zm-.99-.36v-.73h-.45v-1.57h.44v-.67h-.68v2.97h.69Zm.45-1.09v-.86h-.56v.86h.56Z"/>
        <path class="cls-8" d="m106.19,21.21l-.14.39c-.7-.14-1.26-.38-1.71-.72-.46.33-1.03.56-1.71.68l-.13-.4c.59-.08,1.11-.26,1.55-.55-.24-.27-.45-.63-.62-1.07l.33-.16c.17.44.36.77.58.99.22-.22.43-.54.6-.95l.34.13c-.18.44-.41.8-.67,1.07.44.31.97.5,1.58.58Zm-2.26-2.45c-.3.48-.67.89-1.13,1.23l-.26-.3c.41-.28.77-.65,1.07-1.11l.32.19Zm2.19-.64v.37h-3.51v-.37h1.61c-.04-.13-.1-.25-.17-.36l.38-.12c.09.17.15.33.19.48h1.5Zm-.01,1.65l-.28.25c-.27-.39-.63-.79-1.07-1.19l.28-.24c.47.43.83.82,1.07,1.18Z"/>
        <path class="cls-8" d="m108.09,19.35l-.22.33c-.18-.2-.42-.39-.71-.59l.22-.33c.31.2.54.4.71.59Zm-.02.71c-.13.53-.33,1.05-.59,1.54l-.32-.24c.28-.57.48-1.07.58-1.5l.33.2Zm.03-1.77l-.26.31c-.13-.19-.34-.41-.63-.64l.26-.31c.23.19.44.4.62.64Zm.71,1.42c0,.07,0,.13,0,.2,0,.47-.05.83-.16,1.09-.11.26-.27.47-.48.63l-.26-.28c.36-.22.53-.68.53-1.38,0-.08,0-.16,0-.25h.37Zm1.99-.23l-.34.19c-.05-.09-.11-.17-.17-.27-.87.08-1.55.12-2.03.13l-.07-.33c.19-.11.41-.34.66-.71h-.66v-.36h.89c.06-.1.13-.25.22-.45l.39.08c-.05.12-.1.24-.17.36h1.26v.36h-1.46c-.14.23-.32.45-.54.65.42,0,.85-.03,1.26-.08-.06-.08-.15-.18-.26-.29l.34-.18c.26.27.49.57.69.89Zm-1.26,2.11h-.36v-1.88h.36v1.88Zm1.24-.04h-.55c-.1,0-.17-.03-.23-.09-.05-.06-.08-.14-.08-.24v-1.51h.36v1.37s0,.04.02.06c.02.02.03.03.05.03h.42v.37Z"/>
        <path class="cls-8" d="m115.52,18.46l-.15.35c-.34-.09-.68-.21-1.03-.36v.16h-1.35v-.17c-.32.15-.66.28-1.01.38l-.18-.32c.81-.23,1.42-.51,1.8-.87l.4.11s-.05.07-.07.08c.38.26.91.47,1.59.64Zm-.38,1.48h-2.95v-1.15h2.95v1.15Zm-.18,1.62h-.36v-.16h-1.85v.16h-.38v-1.42h2.59v1.42Zm-1.49-1.93v-.52h-.93v.52h.93Zm-.18-.22l-.26.18c-.1-.09-.21-.18-.34-.26l.26-.19c.08.05.2.14.35.27Zm1.3,1.21v-.18h-1.85v.18h1.85Zm0,.47v-.2h-1.85v.2h1.85Zm-.54-2.79c-.22-.13-.36-.22-.41-.25-.11.09-.24.17-.39.25h.79Zm.72,1.33v-.52h-.94v.52h.94Zm-.16-.31c-.09.08-.21.17-.35.26l-.26-.19c.16-.11.27-.19.34-.24l.26.17Z"/>
      </g>
      <g>
        <polygon class="cls-11" points="57.88 17.36 61.91 23.84 60.61 25.94 55.29 17.36 57.88 17.36"/>
        <polygon class="cls-13" points="59.32 17.36 61.91 17.36 64.59 21.69 63.3 23.8 59.32 17.36"/>
        <polygon class="cls-13" points="113.86 45.68 114.69 46.88 115.52 48.08 113.86 48.08 112.2 48.08 113.03 46.88 113.86 45.68"/>
        <path class="cls-11" d="m73.36,27.46c0,.35-.33.64-.74.64s-.74-.28-.74-.64.33-.64.74-.64.74.28.74.64Z"/>
        <rect class="cls-13" x="81.18" y="20.58" width=".95" height="1.47"/>
        <rect class="cls-13" x="37.26" y="41.52" width="1.12" height=".97"/>
        <rect class="cls-13" x="110.42" y="26.47" width=".56" height=".48"/>
        <g>
          <polygon class="cls-11" points="98.61 22.56 97.38 22.56 99.64 25.94 100.86 25.94 98.61 22.56"/>
          <polygon class="cls-11" points="100.85 22.56 99.49 22.56 101.74 25.94 103.1 25.94 100.85 22.56"/>
          <polygon class="cls-11" points="96.5 22.56 95.14 22.56 97.4 25.94 98.76 25.94 96.5 22.56"/>
          <polygon class="cls-11" points="111.55 35.27 115.54 35.27 115.54 22.56 101.73 22.56 103.99 25.94 111.55 25.94 111.55 35.27"/>
          <polygon class="cls-11" points="94.48 25.94 96.51 25.94 94.26 22.56 90.5 22.56 90.5 35.27 94.48 35.27 94.48 25.94"/>
          <polygon class="cls-11" points="111.55 36.48 111.55 36.93 106.85 44.6 99.58 44.6 98.33 43.07 94.48 43.07 94.48 36.48 90.5 36.48 90.5 45.98 91.24 47.06 91.88 47.98 109.2 47.98 115.54 37.72 115.54 36.48 111.55 36.48"/>
          <polygon class="cls-15" points="84.86 44.45 84.86 44.46 84.86 44.46 84.86 44.45"/>
          <polygon class="cls-11" points="51.74 47.98 58.69 47.98 60.08 43 55.32 43 55.25 36.48 51.74 36.48 51.74 47.98"/>
          <polygon class="cls-11" points="55.2 31.67 51.74 28.43 51.74 35.27 55.24 35.27 55.2 31.67"/>
          <polygon class="cls-11" points="84.86 44.45 84.86 44.46 84.86 44.46 82.55 47.92 87.44 47.92 88.03 47.06 88.89 45.82 88.89 36.48 84.86 36.48 84.86 44.45"/>
          <polygon class="cls-11" points="82.75 44.46 80.44 47.92 81.67 47.92 83.98 44.46 82.75 44.46"/>
          <polygon class="cls-11" points="80.02 26.02 84.86 26.02 84.86 35.27 88.89 35.27 88.89 22.64 80.02 22.64 80.02 17.15 76.76 17.15 75.89 18.45 75.89 22.64 66.01 22.64 63.85 26.02 75.56 26.02 69.83 35.27 74.31 35.27 80.02 26.02"/>
          <polygon class="cls-11" points="78.22 44.46 75.82 47.92 77.32 47.92 79.63 44.46 78.22 44.46"/>
          <polygon class="cls-11" points="80.51 44.46 78.2 47.92 79.56 47.92 81.87 44.46 80.51 44.46"/>
          <polygon class="cls-11" points="64.09 44.54 61.98 44.54 61.12 47.92 66.49 47.92 73.56 36.48 69.08 36.48 64.09 44.54"/>
          <polygon class="cls-11" points="38.94 42.95 34.85 42.95 38.08 47.92 42.8 47.92 42.67 36.48 38.97 36.48 38.94 42.95"/>
          <polygon class="cls-11" points="39 28.45 39.01 28.43 39 28.43 39 28.45"/>
          <polygon class="cls-11" points="42.58 28.43 39.9 28.43 39 29.78 38.98 35.27 42.66 35.27 42.58 28.43"/>
          <polygon class="cls-11" points="46.56 17.36 46.56 17.38 46.57 17.36 46.56 17.36"/>
          <polygon class="cls-11" points="50.59 25.86 58.79 25.86 56.73 22.48 50.59 22.48 50.59 17.36 47.45 17.36 46.56 18.71 46.56 22.48 36.69 22.48 34.85 25.86 46.56 25.86 46.56 35.27 50.59 35.27 50.59 25.86"/>
          <rect class="cls-11" x="46.56" y="36.48" width="4.03" height="11.44"/>
        </g>
      </g>
    </g>
    <g>
      <path class="cls-7" d="m44.17,251.89l-1.12,3.03h-.37l-1.1-3.03h.37l.85,2.42c.03.07.05.16.06.27h0c0-.08.03-.17.07-.27l.87-2.41h.36Z"/>
      <path class="cls-7" d="m44.95,253.86c0-.36.1-.64.29-.85.2-.21.46-.31.8-.31.32,0,.57.1.75.3.18.2.27.47.27.83s-.1.62-.29.82c-.2.21-.45.31-.78.31s-.56-.1-.75-.3c-.19-.2-.29-.47-.29-.8Zm.33-.01c0,.26.07.46.2.61.13.15.31.23.53.23s.4-.07.53-.22c.12-.15.19-.36.19-.62s-.06-.49-.18-.64c-.12-.15-.3-.22-.53-.22s-.4.08-.54.23-.2.37-.2.64Z"/>
      <path class="cls-7" d="m49.88,254.81c-.17.1-.36.15-.59.15-.31,0-.55-.1-.74-.3s-.28-.46-.28-.78c0-.36.1-.64.3-.86.2-.21.47-.32.81-.32.19,0,.35.04.5.11v.34c-.16-.11-.33-.17-.52-.17-.22,0-.4.08-.55.24-.14.16-.22.37-.22.64s.07.46.2.61c.13.15.31.22.54.22.19,0,.37-.06.54-.19v.31Z"/>
      <path class="cls-7" d="m51.26,252.91c.21-.14.46-.21.73-.21.5,0,.75.27.75.8v1.41h-.33v-.34h-.01c-.15.26-.37.39-.66.39-.21,0-.38-.06-.5-.17-.12-.11-.18-.26-.18-.45,0-.4.24-.63.71-.7l.65-.09c0-.38-.15-.56-.45-.56-.26,0-.5.09-.7.27v-.34Zm.62.98c-.18.02-.31.07-.39.13-.07.06-.11.16-.11.3,0,.11.04.2.12.26.08.07.18.1.3.1.17,0,.32-.06.43-.19.11-.12.17-.28.17-.46v-.22l-.53.07Z"/>
      <path class="cls-7" d="m54.2,254.91v-3.2h.32v3.2h-.32Z"/>
      <path class="cls-7" d="m55.89,253.86c0-.36.1-.64.29-.85.2-.21.46-.31.8-.31.32,0,.57.1.75.3.18.2.27.47.27.83s-.1.62-.29.82-.45.31-.78.31-.56-.1-.75-.3c-.19-.2-.29-.47-.29-.8Zm.33-.01c0,.26.07.46.2.61.13.15.31.23.53.23s.4-.07.53-.22c.12-.15.19-.36.19-.62s-.06-.49-.18-.64-.3-.22-.53-.22-.4.08-.54.23-.2.37-.2.64Z"/>
      <path class="cls-7" d="m59.31,251.97c0-.06.02-.11.06-.16.04-.04.09-.06.15-.06s.11.02.16.06c.04.04.06.09.06.15s-.02.11-.06.15c-.04.04-.09.06-.16.06s-.11-.02-.15-.06c-.04-.04-.06-.09-.06-.15Zm.04,2.94v-2.16h.32v2.16h-.32Z"/>
      <path class="cls-7" d="m63.02,254.91h-.32v-.37h0c-.16.28-.41.42-.75.42-.27,0-.49-.1-.65-.29-.16-.19-.24-.46-.24-.79,0-.35.09-.64.27-.86.18-.22.42-.33.72-.33s.51.12.65.35h0v-1.34h.32v3.2Zm-.32-1.3c0-.18-.06-.33-.18-.45-.12-.12-.27-.18-.44-.18-.22,0-.39.08-.51.24-.12.16-.18.38-.18.65,0,.25.06.45.18.6.12.15.28.22.48.22s.35-.07.48-.21c.13-.14.19-.32.19-.54v-.33Z"/>
      <path class="cls-7" d="m67.97,254.91h-1.59v-3.03h1.52v.3h-1.19v1.03h1.1v.3h-1.1v1.08h1.26v.3Z"/>
      <path class="cls-7" d="m70.85,252.75l-.72,1.1.71,1.06h-.38l-.43-.71s-.06-.1-.1-.16h0s-.03.06-.1.16l-.44.71h-.37l.74-1.06-.71-1.1h.38l.51.91h0s.03-.05.04-.07l.51-.84h.36Z"/>
      <path class="cls-7" d="m73.49,254.81c-.17.1-.36.15-.59.15-.31,0-.55-.1-.74-.3s-.28-.46-.28-.78c0-.36.1-.64.3-.86.2-.21.47-.32.81-.32.19,0,.35.04.5.11v.34c-.16-.11-.33-.17-.52-.17-.22,0-.4.08-.55.24s-.22.37-.22.64.07.46.2.61c.13.15.31.22.54.22.19,0,.37-.06.54-.19v.31Z"/>
      <path class="cls-7" d="m76.6,254.91h-.32v-1.25c0-.46-.17-.69-.51-.69-.17,0-.32.07-.44.2s-.18.3-.18.51v1.22h-.33v-3.2h.33v1.4h0c.17-.27.4-.41.71-.41.49,0,.73.29.73.88v1.33Z"/>
      <path class="cls-7" d="m78.11,252.91c.21-.14.46-.21.73-.21.5,0,.75.27.75.8v1.41h-.33v-.34h-.01c-.15.26-.37.39-.66.39-.21,0-.38-.06-.5-.17-.12-.11-.18-.26-.18-.45,0-.4.24-.63.71-.7l.65-.09c0-.38-.15-.56-.45-.56-.26,0-.5.09-.7.27v-.34Zm.62.98c-.18.02-.31.07-.39.13-.07.06-.11.16-.11.3,0,.11.04.2.12.26.08.07.18.1.3.1.17,0,.32-.06.43-.19.11-.12.17-.28.17-.46v-.22l-.53.07Z"/>
      <path class="cls-7" d="m82.82,254.91h-.33v-1.23c0-.47-.17-.7-.51-.7-.18,0-.32.07-.44.2-.11.13-.17.3-.17.5v1.23h-.33v-2.16h.33v.36h0c.16-.27.4-.41.71-.41.24,0,.42.08.54.23.12.15.19.37.19.66v1.32Z"/>
      <path class="cls-7" d="m86.11,254.74c0,.79-.37,1.19-1.12,1.19-.27,0-.5-.05-.7-.15v-.33c.24.14.48.2.7.2.54,0,.8-.29.8-.86v-.24h0c-.17.28-.42.42-.75.42-.27,0-.49-.1-.65-.29-.16-.19-.24-.45-.24-.77,0-.37.09-.66.27-.88.18-.22.42-.32.72-.32s.51.12.65.35h0v-.3h.32v1.99Zm-.32-1.13c0-.18-.06-.33-.18-.45-.12-.12-.27-.18-.44-.18-.22,0-.39.08-.51.24s-.19.38-.19.66c0,.24.06.44.18.59.12.15.28.22.47.22s.35-.07.48-.21c.13-.14.19-.32.19-.54v-.33Z"/>
      <path class="cls-7" d="m89.34,253.91h-1.53c0,.25.07.44.2.57s.3.2.51.2c.24,0,.47-.08.67-.24v.31c-.19.14-.44.21-.75.21s-.54-.1-.71-.29c-.17-.2-.26-.47-.26-.83,0-.33.09-.6.28-.81.19-.21.42-.32.71-.32s.49.09.65.27c.15.18.23.44.23.76v.18Zm-.34-.29c0-.2-.05-.36-.15-.47-.1-.11-.23-.17-.4-.17-.16,0-.3.06-.41.17-.12.11-.19.27-.23.47h1.19Z"/>
      <path class="cls-7" d="m94.76,254.7c-.3.17-.64.26-1.01.26-.43,0-.77-.14-1.04-.42-.27-.28-.4-.65-.4-1.1s.15-.85.44-1.15c.29-.3.67-.45,1.12-.45.33,0,.61.05.83.16v.38c-.24-.15-.53-.23-.87-.23s-.62.12-.84.35c-.22.23-.33.54-.33.92s.1.69.3.91c.2.22.48.33.83.33.24,0,.45-.05.63-.15v-.87h-.67v-.3h1v1.36Z"/>
      <path class="cls-7" d="m97.33,253.09c-.06-.05-.15-.07-.26-.07-.15,0-.28.07-.38.22-.1.14-.15.34-.15.57v1.11h-.33v-2.16h.33v.45h0c.05-.15.12-.27.23-.36.1-.08.21-.13.34-.13.09,0,.16,0,.21.03v.34Z"/>
      <path class="cls-7" d="m98.31,253.86c0-.36.1-.64.29-.85.2-.21.46-.31.8-.31.32,0,.57.1.75.3.18.2.27.47.27.83s-.1.62-.29.82-.45.31-.78.31-.56-.1-.75-.3c-.19-.2-.29-.47-.29-.8Zm.33-.01c0,.26.07.46.2.61.13.15.31.23.53.23s.4-.07.53-.22c.12-.15.19-.36.19-.62s-.06-.49-.18-.64c-.12-.15-.3-.22-.53-.22s-.4.08-.54.23-.2.37-.2.64Z"/>
      <path class="cls-7" d="m103.51,254.91h-.33v-.34h0c-.14.26-.36.39-.67.39-.52,0-.77-.31-.77-.92v-1.29h.32v1.24c0,.46.18.7.53.7.17,0,.32-.06.43-.19.11-.13.17-.29.17-.5v-1.24h.33v2.16Z"/>
      <path class="cls-7" d="m105.34,254.59v1.31h-.33v-3.15h.33v.38h0c.17-.29.42-.43.75-.43.27,0,.49.1.65.29.16.19.24.45.24.78,0,.36-.09.65-.27.87-.18.22-.42.33-.72.33-.28,0-.5-.12-.65-.37h0Zm0-.56c0,.18.06.33.18.46s.27.19.45.19c.21,0,.38-.08.5-.25.12-.16.18-.39.18-.68,0-.24-.06-.43-.17-.57-.12-.14-.27-.21-.46-.21s-.36.07-.49.21c-.13.14-.19.32-.19.54v.31Z"/>
    </g>
    <path class="cls-11" d="m82.21,160.26h-11.78c-1.14,0-2.07.93-2.07,2.07v11.78c0,1.14.93,2.07,2.07,2.07h11.78c1.14,0,2.07-.93,2.07-2.07v-11.78c0-1.14-.93-2.07-2.07-2.07Zm.16,4.25c-.32.44-.68.82-1.12,1.14-.06.04-.08.09-.07.17.02.12.02.25,0,.37-.02.28-.04.56-.08.84-.03.22-.07.44-.13.65-.06.24-.13.48-.21.72-.1.27-.2.53-.32.79-.29.62-.67,1.18-1.12,1.69-.48.54-1.03.99-1.65,1.36-.4.23-.81.43-1.25.58-.26.09-.53.15-.8.22-.43.1-.86.14-1.29.16-.5.03-.99,0-1.47-.08-.66-.1-1.3-.3-1.9-.59-.23-.11-.46-.24-.68-.37-.01,0-.02-.02-.05-.04.15,0,.28,0,.42,0,.23,0,.46,0,.68-.02.28-.04.56-.09.82-.17.27-.08.55-.18.8-.31.28-.14.53-.31.8-.47.02-.01.04-.02.05-.04.01-.02.02-.04.03-.07-.02,0-.04-.02-.07-.03-.18-.03-.37-.05-.55-.09-.38-.09-.7-.29-.99-.55-.32-.28-.54-.63-.68-1.03,0,0,0-.01,0-.03.18.01.36.04.54.03.17-.02.36,0,.53-.11-1.25-.37-1.89-1.2-1.99-2.47.2.08.38.15.56.21.15.04.31.06.46.08.02,0,.05-.02.07-.03-.02-.02-.03-.04-.05-.05-.39-.29-.67-.66-.84-1.11-.11-.29-.17-.59-.17-.9,0-.42.09-.82.29-1.19.01-.02.02-.04.04-.07.08.09.16.18.24.27.47.51.99.95,1.59,1.31.37.22.75.42,1.15.57.42.16.85.3,1.3.36.28.04.57.07.86.11.08.01.09-.04.08-.1-.02-.24-.05-.47-.04-.71.02-.39.15-.76.35-1.09.28-.46.67-.8,1.17-1,.24-.1.5-.16.77-.18.3-.03.59,0,.87.08.35.09.67.26.95.5.03.03.07.04.09.08.09.14.22.14.35.09.33-.11.66-.23.99-.36.12-.05.24-.12.38-.19-.04.1-.06.18-.1.25-.2.42-.48.77-.87,1.03-.02.01-.04.04-.05.08.46-.03.89-.16,1.33-.35-.02.04-.03.06-.04.08Z"/>
  </g>
</svg>