<?xml version="1.0" encoding="UTF-8"?>
<svg id="_圖層_2" data-name="圖層 2" xmlns="http://www.w3.org/2000/svg" viewBox="0 0 150.49 263.87">
  <defs>
    <style>
      .cls-1 {
        fill: #7fcbd8;
      }

      .cls-2 {
        fill: #e73f8a;
      }

      .cls-3 {
        stroke: #e71f19;
      }

      .cls-3, .cls-4, .cls-5 {
        fill: none;
      }

      .cls-3, .cls-5 {
        stroke-miterlimit: 10;
        stroke-width: .25px;
      }

      .cls-6 {
        fill: #7ac9d0;
      }

      .cls-5 {
        stroke: #1dac5d;
      }

      .cls-7 {
        fill: #343232;
      }
    </style>
  </defs>
  <g id="_圖層_6" data-name="圖層 6">
    <rect class="cls-7" x=".12" y=".12" width="150.24" height="263.18"/>
    <g>
      <g>
        <g>
          <polygon class="cls-1" points="33.91 222.48 35.26 223.96 36.62 225.44 33.91 225.44 31.2 225.44 32.55 223.96 33.91 222.48"/>
          <polygon class="cls-1" points="33.91 225.03 35.26 226.51 36.62 227.99 33.91 227.99 31.2 227.99 32.55 226.51 33.91 225.03"/>
        </g>
        <g>
          <polygon class="cls-1" points="33.91 41.11 35.26 39.63 36.62 38.15 33.91 38.15 31.2 38.15 32.55 39.63 33.91 41.11"/>
          <polygon class="cls-1" points="33.91 38.56 35.26 37.08 36.62 35.6 33.91 35.6 31.2 35.6 32.55 37.08 33.91 38.56"/>
        </g>
        <g>
          <path class="cls-1" d="m35.38,49.44v-1.09h1.18v2.19h-5.88l4.46-7.66h1.42l-3.76,6.57h2.58Z"/>
          <path class="cls-1" d="m36.56,52.68v5.47c0,.73-.39,1.09-1.18,1.09h-3.53c-.78,0-1.18-.36-1.18-1.09v-5.47c0-.73.39-1.09,1.18-1.09h3.53c.78,0,1.18.36,1.18,1.09Zm-1.18,0h-3.53v5.47h3.53v-5.47Zm-2.35,3.28v-1.09h1.18v1.09h-1.18Z"/>
          <path class="cls-1" d="m31.85,60.13h3.53c.78,0,1.18.36,1.18,1.09v6.57l-1.18-2.19v-4.38h-3.53v6.57l-1.18-2.19v-4.38c0-.73.39-1.09,1.18-1.09Z"/>
          <path class="cls-1" d="m31.85,69.19v1.1h-1.18v-2.19h5.88l-4.46,7.66h-1.42l3.76-6.57h-2.58Z"/>
          <path class="cls-1" d="m30.67,81.83v-5.47h5.88v1.09h-4.71v6.57l-1.18-2.19Z"/>
          <path class="cls-1" d="m36.56,85.35v5.47c0,.73-.39,1.09-1.18,1.09h-3.53c-.78,0-1.18-.36-1.18-1.09v-5.47c0-.73.39-1.09,1.18-1.09h3.53c.78,0,1.18.36,1.18,1.09Zm-1.18,0h-3.53v5.47h3.53v-5.47Zm-2.35,3.28v-1.1h1.18v1.1h-1.18Z"/>
          <path class="cls-1" d="m36.56,93.94h-5.88v-1.09h5.88v1.09Z"/>
          <path class="cls-1" d="m35.38,94.89l1.18,2.19v4.38c0,.73-.39,1.09-1.18,1.09h-3.53c-.78,0-1.18-.36-1.18-1.09v-6.57h3.53v1.09h-2.35v5.47h3.53v-6.57Z"/>
          <path class="cls-1" d="m36.56,115.7l-1.18-2.19v-5.47h1.18v7.66Zm-2.35-7.66v7.66l-1.18-2.19v-4.38h-1.18v6.57l-1.18-2.19v-5.47h3.53Z"/>
          <path class="cls-1" d="m33.61,118.87l2.94-3.01v1.64l-2.14,2.19,2.14,2.19v1.64l-2.94-3.01-2.94,3.01v-1.64l2.14-2.19-2.14-2.19v-1.64l2.94,3.01Z"/>
          <path class="cls-1" d="m31.85,123.55h3.53c.78,0,1.18.36,1.18,1.1v6.57l-1.18-2.19v-4.38h-3.53v6.57l-1.18-2.19v-4.38c0-.73.39-1.1,1.18-1.1Z"/>
          <path class="cls-1" d="m36.56,132.61h-2.35v5.47h2.35v1.09h-5.88v-1.09h2.35v-5.47h-2.35v-1.09h5.88v1.09Z"/>
          <path class="cls-1" d="m31.85,146.35h2.58l-3.76-6.57h1.42l4.46,7.66h-5.88v-2.19h1.18v1.09Z"/>
          <path class="cls-1" d="m30.67,148.52h5.88l-3.83,6.57h3.83v1.1h-5.88l3.76-6.57h-3.76v-1.1Z"/>
          <path class="cls-1" d="m30.67,164.88v-6.57c0-.73.39-1.09,1.18-1.09h3.53c.78,0,1.18.36,1.18,1.09v6.57l-1.18-2.19v-4.38h-3.53v5.47h1.18v-3.28l1.18,2.19v2.19h-3.53Z"/>
          <path class="cls-1" d="m36.56,173.45l-1.18-2.19v-5.47h1.18v7.66Zm-2.35-7.66v7.66l-1.18-2.19v-4.38h-1.18v6.57l-1.18-2.19v-5.47h3.53Z"/>
          <path class="cls-1" d="m30.67,186.59v-6.57c0-.73.39-1.09,1.18-1.09h3.53c.78,0,1.18.36,1.18,1.09v6.57l-1.18-2.19v-4.38h-3.53v5.47h1.18v-3.28l1.18,2.19v2.19h-3.53Z"/>
          <path class="cls-1" d="m33.03,188.58h-2.35v-1.09h3.53v6.57h1.18v-6.57l1.18,2.19v4.38c0,.73-.39,1.09-1.18,1.09h-1.18c-.78,0-1.18-.36-1.18-1.08v-3.03l-2.35,4.01v-2.32l2.35-4.16Z"/>
          <path class="cls-1" d="m36.56,196.93v5.47c0,.73-.39,1.09-1.18,1.09h-3.53c-.78,0-1.18-.36-1.18-1.09v-5.47c0-.73.39-1.09,1.18-1.09h3.53c.78,0,1.18.36,1.18,1.09Zm-1.18,0h-3.53v5.47h3.53v-5.47Z"/>
          <path class="cls-1" d="m30.67,210.98v-5.47c0-.73.39-1.1,1.18-1.1h4.71v1.1h-4.71v5.47h4.71v1.1h-4.71c-.78,0-1.18-.36-1.18-1.1Z"/>
          <path class="cls-1" d="m35.38,212.83l1.18,2.19v4.38c0,.73-.39,1.09-1.18,1.09h-1.18c-.78,0-1.18-.36-1.18-1.09v-5.47h-2.35v-1.1h3.53v6.57h1.18v-6.57Z"/>
        </g>
      </g>
      <g>
        <path class="cls-1" d="m117.56,161.15c-.71-.12-1.38-.33-2.01-.62l.31-.82c.36.16.66.27.89.34v-3.22h-.55l.11,2.58-.73.04-.12-2.63h-.24c-.16,0-.23.08-.23.23v3.15h-.76v-3.28c0-.64.32-.95.95-.95h.26l-.06-1.43.74-.02.05,1.45h.59v-1.83h-2.9c-1.53,0-2.83-.3-3.88-.89l.64-.69c.91.48,1.96.71,3.15.71h3.81v2.92h1.73v.87h-.46v3.47h-.79v-3.47h-.49v4.09Zm-7.33.05v-7.13h.81v2.42h.62v-1.63h1.95v.82h-1.22v.81h1.48v.81h-2.82v.68h2.82v.84h-1.48v.78h1.22v.8h-1.95v-1.58h-.62v2.38h-.81Z"/>
        <path class="cls-1" d="m116.7,166.04v-.68h-1.21c.16.21.32.4.49.56l-1.08.06c-.13-.14-.29-.35-.49-.62h-3.62c-.19,0-.37-.08-.54-.23-.17-.15-.24-.55-.2-1.2l.9-.23c-.01.36-.01.6,0,.7,0,.1.05.15.14.15h2.68c-.2-.25-.36-.47-.47-.68l.88-.26c.26.41.47.73.65.93h1.88v-.89h.89v.89h1.69v.81h-1.69v.68h-.89Zm-3.64,2.79v-.93c-.1-.02-.17-.03-.21-.05-.21.26-.5.54-.85.83l-.77-.5c.2-.14.43-.33.71-.57-.7-.27-1.36-.74-1.97-1.42l.62-.59c.77.91,1.6,1.4,2.48,1.48v-1.23h.84v1.29c.28.03.56.05.84.05v-.27c-.34-.18-.59-.32-.75-.43l.4-.64c.49.36,1.08.62,1.76.79l-.27.69c-.14-.03-.24-.05-.31-.09v1.46h-.84v-.7c-.37-.01-.65-.03-.84-.05v.88h-.84Zm3.2.04v-1.83c0-.21.08-.38.24-.51.16-.13.37-.2.62-.2h2.16v.8h-.6v1.68h-.84v-1.68h-.46c-.07,0-.14.02-.19.07s-.08.1-.08.15v1.52h-.85Zm-5.21,3.53l-.91-.24c-.06-1.3.3-2.21,1.08-2.73-.55-.2-.97-.41-1.26-.64l.42-.63c.91.63,2.16.97,3.73,1.04l-.08.72c-.62-.02-1.23-.09-1.83-.22-.29.13-.52.28-.68.45h3.78v-1.07h.88v1.3c.46-.31.88-.67,1.27-1.1l.54.61c-.22.24-.46.47-.7.67.3.22.61.4.92.55v-1.9h.86v2.86h-.84c-.56-.29-1.09-.62-1.6-.99-.02.02-.17.12-.45.3v.92c-.75-.12-1.34-.25-1.76-.38l.21-.72c.19.06.41.12.67.18v-.44h-1.51v1.15h-.86v-1.15h-1.83c-.05.29-.08.62-.08,1.01,0,.15,0,.31.02.46Z"/>
        <path class="cls-1" d="m114.28,179.75v-.61h-3.12c-.35,0-.6-.06-.76-.17-.16-.11-.25-.26-.28-.43-.03-.18-.04-.54-.04-1.1l.89-.26c0,.19.01.53.01,1.01,0,.08.06.12.17.12h3.13v-3.52h.8v3.52h3.28v-3.43h.8v4.84h-.8v-.57h-3.28v.61h-.8Zm1.4-1.99v-2.5h2.12v2.5h-2.12Zm-4.26.02v-2.52h2.26v2.52h-2.26Zm5.02-.81h.61v-.91h-.61v.91Zm-4.27,0h.73v-.91h-.73v.91Zm-1.42,6.52l-.76-.55c.79-.74,1.77-1.28,2.96-1.62-1.29-.32-2.26-.82-2.92-1.49l.72-.55c.44.41.96.74,1.57.99.61.24,1.17.4,1.68.47.51.07,1.28.1,2.31.1l-.02.84c-.16,0-.33-.01-.49-.01-2.09,0-3.77.61-5.05,1.83Zm7.19-.16c-1.18-.05-2.3-.22-3.36-.51l.36-.79c.63.17,1.34.3,2.12.37v-1.64c-.75-.31-1.34-.61-1.76-.88l.69-.6c.98.55,2.13.99,3.45,1.33l-.16.86c-.47-.11-.91-.24-1.34-.39v2.23Z"/>
        <path class="cls-1" d="m111.6,189.41l-.74-.55c.27-.21.6-.48.99-.83-.71-.41-1.36-.94-1.95-1.59l.66-.6c.58.66,1.21,1.18,1.91,1.56.29-.3.68-.75,1.17-1.36.99.23,1.88.4,2.69.51-.03-.23-.05-.45-.05-.65h.9c0,.14.03.4.07.76.45.07,1.13.14,2.06.22l-.04.83-1.91-.19c.02.24.05.47.09.69.11,0,.36.01.77.01v.82c-.2,0-.4,0-.61,0,0,.07.02.18.05.32h-.9l-.06-.36c-1.85-.05-3.18-.26-4-.61-.17.18-.53.52-1.1,1.02Zm4.95-1.23c-.03-.14-.08-.4-.13-.78-.88-.13-1.69-.28-2.45-.43l-.63.76c.73.24,1.8.39,3.2.44Zm-6.32,6.29v-4.84h8.82v4.76h-.86v-1.46h-1.59v1.07h-3.75v-1.05h-1.75v1.52h-.87Zm.87-2.36h1.75v-1.06h3.75v1.06h1.59v-1.63h-7.09v1.64Zm2.6,1.08h2.06v-1.34h-2.06v1.34Z"/>
        <path class="cls-1" d="m110.91,205.7l-.92-.34c.33-1.66.9-3.01,1.71-4.07-.79-1.09-1.33-2.45-1.62-4.08l.95-.3c.18,1.41.61,2.65,1.3,3.7.64-.58,1.49-1.07,2.55-1.48l.37.78c-1.04.4-1.83.86-2.37,1.37.53.54,1.28,1.02,2.26,1.44l-.3.82c-1.05-.43-1.9-.97-2.56-1.61-.73,1.05-1.19,2.3-1.38,3.76Zm5.85-5.38c-1.15-.71-2.13-1.61-2.93-2.68l.72-.63c.66.98,1.55,1.83,2.65,2.55l-.45.77Zm1.52,5.22h-.89v-8.38h.89v3.83c.31-.1.59-.23.86-.4l.3.92c-.4.22-.79.37-1.15.45v3.58Zm-3.95-.03l-.58-.66c.93-.66,1.87-1.51,2.83-2.55l.57.66c-1.01,1.11-1.96,1.97-2.82,2.56Z"/>
        <path class="cls-1" d="m115.36,210.23l-.79-.53c.47-.44.94-1,1.4-1.69l.79.53c-.48.73-.95,1.3-1.4,1.69Zm-1.7-.04c-1.27-.32-2.5-.79-3.68-1.42l.56-.75c1.35.68,2.54,1.14,3.58,1.39l-.47.78Zm4.23.07l-.73-.61c.46-.32.97-.82,1.54-1.5l.73.62c-.45.55-.96,1.05-1.54,1.49Zm-3.38,1.7c-.16,0-.32,0-.48,0-1.11,0-1.98-.13-2.6-.38-.62-.25-1.12-.64-1.5-1.15l.67-.63c.52.85,1.62,1.27,3.3,1.27.18,0,.38,0,.61,0v.89Zm.56,4.75l-.45-.81c.2-.12.42-.25.64-.41-.19-2.08-.29-3.69-.31-4.84l.78-.16c.26.45.82.97,1.7,1.57v-1.59h.87v2.12c.24.13.6.3,1.07.52l-.2.93c-.29-.11-.58-.25-.87-.4v3h-.87v-3.48c-.54-.33-1.06-.76-1.56-1.28.01,1.01.08,2.02.2,3.02.2-.15.43-.36.7-.62l.42.82c-.65.62-1.36,1.17-2.13,1.64Zm-5.04-3v-.85h4.48v.85h-4.48Zm.1,2.96v-1.31c0-.23.07-.41.21-.54.14-.13.33-.2.57-.2h3.61v.86h-3.28c-.06,0-.11.02-.15.06-.05.04-.07.08-.07.12v1.01h-.89Z"/>
        <path class="cls-1" d="m117.47,227.94l-.84-.35c.21-.81.5-1.62.87-2.45h-.39v-3.22h.41c-.36-.76-.67-1.57-.91-2.42l.77-.43c.54,1.94,1.23,3.38,2.07,4.3l-.25.96c-.09-.07-.16-.13-.2-.18-.62.92-1.13,2.18-1.52,3.78Zm-3.53-.9v-7.04h2.74v7.04h-2.74Zm-3.86-.42v-.87h.38v-4.42h-.38v-.9h3.39v6.19h-3.39Zm4.6-3.54h1.24v-2.22h-1.24v2.22Zm.52-.43l-.42-.62c.21-.24.42-.51.63-.82l.45.61c-.12.2-.34.48-.65.83Zm-2.88,3.11h.43v-4.42h-.43v4.42Zm-1.12,0h.47v-4.42h-.47v4.42Zm6.65-1.29c.32-.53.51-.85.59-.97-.22-.27-.41-.58-.59-.93v1.89Zm-3.16,1.72h1.24v-2.23h-1.24v2.23Zm.75-.38c-.2-.22-.4-.49-.62-.83l.45-.61c.26.39.45.66.57.81l-.4.63Z"/>
      </g>
      <g>
        <polygon class="cls-6" points="120.09 90.51 104.65 100.11 99.63 97.02 120.09 84.33 120.09 90.51"/>
        <polygon class="cls-2" points="120.09 93.94 120.09 100.11 109.76 106.52 104.75 103.43 120.09 93.94"/>
        <polygon class="cls-2" points="52.56 223.99 49.71 225.97 46.85 227.95 46.85 223.99 46.85 220.04 49.71 222.01 52.56 223.99"/>
        <path class="cls-6" d="m96,127.41c-.84,0-1.51-.79-1.51-1.76s.68-1.76,1.51-1.76,1.51.79,1.51,1.76-.68,1.76-1.51,1.76Z"/>
        <rect class="cls-2" x="109.53" y="145.44" width="2.27" height="3.51" transform="translate(257.86 36.53) rotate(90)"/>
        <rect class="cls-2" x="60.01" y="41.54" width="2.68" height="2.3" transform="translate(104.04 -18.66) rotate(90)"/>
        <rect class="cls-2" x="97.14" y="215.89" width="1.34" height="1.15" transform="translate(314.28 118.66) rotate(90)"/>
        <g>
          <polygon class="cls-6" points="107.7 187.62 107.7 184.7 99.63 190.08 99.63 193 107.7 187.62"/>
          <polygon class="cls-6" points="107.7 192.96 107.7 189.72 99.63 195.1 99.63 198.34 107.7 192.96"/>
          <polygon class="cls-6" points="107.7 182.59 107.7 179.35 99.63 184.73 99.63 187.98 107.7 182.59"/>
          <polygon class="cls-6" points="77.39 218.49 77.39 227.99 107.7 227.99 107.7 195.07 99.63 200.45 99.63 218.49 77.39 218.49"/>
          <polygon class="cls-6" points="99.63 177.77 99.63 182.63 107.7 177.25 107.7 168.28 77.39 168.28 77.39 177.77 99.63 177.77"/>
          <polygon class="cls-6" points="74.51 218.49 73.43 218.49 55.14 207.28 55.14 189.93 58.78 186.96 58.78 177.77 74.51 177.77 74.51 168.28 51.84 168.28 49.28 170.05 47.08 171.58 47.08 212.89 71.56 227.99 74.51 227.99 74.51 218.49"/>
          <polygon class="cls-4" points="55.5 154.85 55.49 154.84 55.49 154.85 55.5 154.85"/>
          <polygon class="cls-6" points="47.08 75.86 47.08 92.43 58.96 95.74 58.96 84.41 74.51 84.24 74.51 75.86 47.08 75.86"/>
          <polygon class="cls-6" points="85.97 84.11 93.69 75.86 77.39 75.86 77.39 84.2 85.97 84.11"/>
          <polygon class="cls-6" points="55.5 154.85 55.49 154.85 55.49 154.84 47.23 149.33 47.23 160.99 49.28 162.41 52.24 164.46 74.51 164.46 74.51 154.85 55.5 154.85"/>
          <polygon class="cls-6" points="55.49 149.82 47.23 144.31 47.23 147.23 55.49 152.74 55.49 149.82"/>
          <polygon class="cls-6" points="99.44 143.3 99.44 154.85 77.39 154.85 77.39 164.46 107.5 164.46 107.5 143.3 120.6 143.3 120.6 135.54 117.49 133.46 107.5 133.46 107.5 109.89 99.44 104.75 99.44 132.66 77.39 119.01 77.39 129.68 99.44 143.3"/>
          <polygon class="cls-6" points="55.49 139.01 47.23 133.29 47.23 136.86 55.49 142.37 55.49 139.01"/>
          <polygon class="cls-6" points="55.49 144.47 47.23 138.96 47.23 142.2 55.49 147.72 55.49 144.47"/>
          <polygon class="cls-6" points="55.29 105.33 55.29 100.29 47.23 98.24 47.23 111.05 74.51 127.9 74.51 117.23 55.29 105.33"/>
          <polygon class="cls-6" points="59.07 45.36 59.07 35.6 47.23 43.29 47.23 54.55 74.51 54.25 74.51 45.42 59.07 45.36"/>
          <polygon class="cls-6" points="93.66 45.5 93.69 45.53 93.69 45.5 93.66 45.5"/>
          <polygon class="cls-6" points="93.69 54.04 93.69 47.63 90.49 45.49 77.39 45.44 77.39 54.22 93.69 54.04"/>
          <polygon class="cls-6" points="120.09 63.51 120.04 63.51 120.09 63.54 120.09 63.51"/>
          <polygon class="cls-6" points="99.83 73.12 99.83 92.68 107.89 87.76 107.89 73.12 120.09 73.12 120.09 65.65 116.89 63.51 107.89 63.51 107.89 39.99 99.83 35.6 99.83 63.51 77.39 63.51 77.39 73.12 99.83 73.12"/>
          <rect class="cls-6" x="47.23" y="63.51" width="27.28" height="9.61"/>
        </g>
      </g>
    </g>
  </g>
  <g id="_圖層_4" data-name="圖層 4">
    <rect class="cls-5" x="-56.57" y="56.82" width="263.62" height="150.24" transform="translate(207.18 56.69) rotate(90)"/>
    <rect class="cls-3" x="-52.32" y="61.58" width="255.12" height="141.73" transform="translate(207.69 57.2) rotate(90)"/>
  </g>
</svg>